<?xml version="1.0" encoding="UTF-8"?>
<svg id="Capa_1" data-name="Capa 1" xmlns="http://www.w3.org/2000/svg" viewBox="0 0 512 362.67">
  <defs>
    <style>
      .cls-1 {
        fill: #fff;
      }
    </style>
  </defs>
  <path class="cls-1" d="M480,149.33H32c-17.67,0-32,14.33-32,32s14.33,32,32,32h448c17.67,0,32-14.33,32-32s-14.33-32-32-32Z"/>
  <path class="cls-1" d="M32,64h448c17.67,0,32-14.33,32-32S497.67,0,480,0H32C14.33,0,0,14.33,0,32s14.33,32,32,32Z"/>
  <path class="cls-1" d="M480,298.67H32c-17.67,0-32,14.33-32,32s14.33,32,32,32h448c17.67,0,32-14.33,32-32s-14.33-32-32-32Z"/>
</svg>